<svg data-v-d3f97b9e="" xmlns="http://www.w3.org/2000/svg" viewBox="0 0 207.52136529201724 163"><!----><!----><!----><g data-v-d3f97b9e="" id="ff1317f3-d4e4-407a-8650-8c01c067f0af" fill="black" transform="matrix(5.6980053264473165,0,0,5.6980053264473165,-7.9202263125209384,80.26496179257632)"><path d="M1.39 14.35L5.56 14.35C7.06 14.35 8.04 13.20 8.04 11.59C8.04 10.07 7.07 9.34 6.16 9.23L6.16 9.17C6.89 9.00 7.66 8.40 7.66 7.04C7.66 5.50 6.73 4.58 5.21 4.58L1.39 4.58ZM2.23 9.63L5.33 9.63C6.51 9.63 7.14 10.35 7.14 11.35L7.14 11.87C7.14 12.89 6.51 13.61 5.33 13.61L2.23 13.61ZM2.23 5.32L5.12 5.32C6.19 5.32 6.76 5.95 6.76 6.85L6.76 7.38C6.76 8.26 6.19 8.90 5.12 8.90L2.23 8.90ZM15.97 14.35L15.97 13.65L15.01 13.65L15.01 9.41C15.01 7.90 14.07 7.01 12.40 7.01C11.10 7.01 10.30 7.63 9.91 8.46L10.42 8.88C10.81 8.13 11.42 7.71 12.38 7.71C13.59 7.71 14.21 8.32 14.21 9.49L14.21 10.33L12.56 10.33C10.49 10.33 9.65 11.13 9.65 12.40C9.65 13.73 10.51 14.52 12.01 14.52C13.13 14.52 13.86 14.01 14.18 13.22L14.25 13.22L14.25 13.47C14.29 14 14.55 14.35 15.16 14.35ZM12.12 13.83C11.14 13.83 10.49 13.38 10.49 12.56L10.49 12.22C10.49 11.42 11.10 10.93 12.53 10.93L14.21 10.93L14.21 12.26C14.21 13.23 13.29 13.83 12.12 13.83ZM23.35 14.35L23.35 13.65L22.39 13.65L22.39 9.41C22.39 7.90 21.45 7.01 19.78 7.01C18.48 7.01 17.68 7.63 17.29 8.46L17.79 8.88C18.19 8.13 18.80 7.71 19.75 7.71C20.97 7.71 21.59 8.32 21.59 9.49L21.59 10.33L19.94 10.33C17.86 10.33 17.02 11.13 17.02 12.40C17.02 13.73 17.89 14.52 19.39 14.52C20.51 14.52 21.24 14.01 21.56 13.22L21.63 13.22L21.63 13.47C21.67 14 21.92 14.35 22.54 14.35ZM19.50 13.83C18.52 13.83 17.86 13.38 17.86 12.56L17.86 12.22C17.86 11.42 18.48 10.93 19.91 10.93L21.59 10.93L21.59 12.26C21.59 13.23 20.66 13.83 19.50 13.83ZM24.99 14.35L25.79 14.35L25.79 11.75L26.92 10.60L29.64 14.35L30.62 14.35L27.50 10.09L30.31 7.18L29.33 7.18L26.95 9.65L25.83 10.84L25.79 10.84L25.79 3.99L24.99 3.99ZM37.81 14.35L37.81 13.65L36.85 13.65L36.85 9.41C36.85 7.90 35.91 7.01 34.24 7.01C32.94 7.01 32.14 7.63 31.75 8.46L32.26 8.88C32.65 8.13 33.26 7.71 34.22 7.71C35.43 7.71 36.05 8.32 36.05 9.49L36.05 10.33L34.40 10.33C32.33 10.33 31.49 11.13 31.49 12.40C31.49 13.73 32.35 14.52 33.85 14.52C34.97 14.52 35.70 14.01 36.02 13.22L36.09 13.22L36.09 13.47C36.13 14 36.39 14.35 37.00 14.35ZM33.96 13.83C32.98 13.83 32.33 13.38 32.33 12.56L32.33 12.22C32.33 11.42 32.94 10.93 34.37 10.93L36.05 10.93L36.05 12.26C36.05 13.23 35.13 13.83 33.96 13.83Z"></path></g><!----><g data-v-d3f97b9e="" id="2dd88b3a-a994-45aa-b36f-f77d5e5d2de0" transform="matrix(1.2748740821274704,0,0,1.2748740821274704,41.17769324731629,-18.017558584047528)" stroke="none" fill="black"><path d="M59.737 71.692a7.88 7.88 0 0 1-3.918-2.22 12.504 12.504 0 0 1-1.521-1.879c.03-.047.07-.091.1-.138 1.069-1.603 1.824-3.331 2.406-5.074l.308-.917-.545-.793c-.604-.881-1.144-1.273-1.938-1.696a4.672 4.672 0 0 0-2.489-.464c-1.664.156-2.824.955-3.734 1.717l-1.061.891.377 1.17c.611 1.888 1.391 3.477 2.398 5.068a9.988 9.988 0 0 1-1.571 1.724c-1.106.952-2.485 1.585-4.051 1.859-1.565.26-3.272.193-4.98-.204 1.396 1.084 3.142 1.778 5.02 1.979 1.875.223 3.921-.204 5.659-1.198.74-.433 1.413-.959 2.037-1.528a12.76 12.76 0 0 0 1.854 1.609c1.608 1.11 3.593 1.819 5.521 1.712 1.928-.053 3.671-.801 5.111-1.795-1.718.394-3.441.515-4.983.177z"></path><path d="M82.463 73.273c-.114-.051-.231-.094-.347-.144 1.823-1.84 3.42-3.898 4.61-6.208.113-.223.207-.455.313-.682.917.006 1.834.008 2.754-.026 2.343-.069 4.691-.243 7.059-.705-2.295-.743-4.604-1.198-6.922-1.552-.64-.102-1.283-.169-1.923-.25.299-1.029.503-2.08.588-3.145.063-.9.018-1.799-.085-2.688.416-.093.835-.168 1.248-.27 2.214-.528 4.412-1.156 6.571-2.068-2.327-.275-4.614-.27-6.886-.164-.471.02-.937.065-1.406.097a14.906 14.906 0 0 0-.453-1.358c.138.452.241.909.332 1.368a71.329 71.329 0 0 0-5.248.528c-2.242.318-4.472.72-6.685 1.265-2.211.528-4.409 1.158-6.568 2.073 2.327.279 4.613.275 6.887.167 2.275-.09 4.53-.32 6.773-.637a73.452 73.452 0 0 0 5.098-.93 15.47 15.47 0 0 1-.951 5.658 78.366 78.366 0 0 0-4.263-.387c-2.331-.135-4.667-.19-7.011-.1-2.342.071-4.69.243-7.058.701 2.295.74 4.604 1.193 6.922 1.548 2.317.37 4.643.597 6.971.744 1.059.063 2.117.102 3.178.123-.039.066-.071.139-.111.204-1.393 2.318-3.247 4.298-5.31 6.039-1.548-.637-3.107-1.242-4.701-1.765-2.251-.759-4.542-1.423-6.948-1.827 1.923 1.503 3.961 2.741 6.04 3.888a64.895 64.895 0 0 0 3.099 1.629c-.401.277-.788.575-1.199.837-7.156 4.553-15.659 6.966-24.027 7.005-8.352-.094-16.756-2.598-23.748-7.093a41.154 41.154 0 0 1-1.978-1.398 80.637 80.637 0 0 0 3.234-1.921c2.327-1.443 4.606-2.978 6.756-4.767-2.701.723-5.269 1.7-7.792 2.767a89.124 89.124 0 0 0-4.504 2.045c-1.568-1.391-2.968-2.925-4.114-4.613.706-.11 1.412-.212 2.116-.331 2.421-.46 4.834-.954 7.218-1.614 2.387-.645 4.757-1.385 7.077-2.408-2.53-.157-5.01-.034-7.473.19-2.465.203-4.901.577-7.329.981-1.033.196-2.061.403-3.089.623a14.198 14.198 0 0 1-1.159-3.918l.357.008c2.641-.03 5.283-.091 7.925-.323 2.642-.213 5.284-.526 7.926-1.126-2.642-.601-5.284-.913-7.926-1.127-2.642-.232-5.284-.293-7.925-.322-.14.002-.28.007-.419.009.07-.701.181-1.4.385-2.085.232-.864.651-1.904 1.013-2.94l1.097-3.074c.726-2.043 1.451-4.074 2.226-6.063 1.274-3.259 2.724-6.405 4.612-9.148.324-.368.628-.757.96-1.117a72.786 72.786 0 0 1 3.053-3.227l.381-.377a21.705 21.705 0 0 1 6.797-3.561c3.918-1.238 8.152-1.727 12.4-1.883 4.23-.208 8.399.26 12.355 1.602 3.954 1.321 7.591 3.568 10.702 6.431 6.327 5.725 10.416 13.63 13.646 21.649-1.221-4.173-2.756-8.275-4.776-12.168a50.806 50.806 0 0 0-3.493-5.821 36.667 36.667 0 0 1 1.789 2.192c-.836-2.846-2.402-5.479-4.28-7.832-.958-1.16-1.956-2.304-3.077-3.323-.411-.377-.828-.734-1.247-1.095 1.938-1.001 3.875-2.006 5.776-3.079a234.633 234.633 0 0 0 6.424-3.635c.025.65-.012 1.387-.104 2.138a68.154 68.154 0 0 1-.996 5.5c-.789 3.727-1.736 7.473-2.495 11.326 2.153-3.297 3.878-6.807 5.339-10.468.696-1.845 1.374-3.713 1.789-5.736.207-1.021.396-2.053.398-3.272-.006-.616-.058-1.283-.408-2.146a3.462 3.462 0 0 0-1.032-1.357c-.528-.423-1.229-.638-1.787-.667l-.574-.03-.534.289a238.067 238.067 0 0 0-8.012 4.536c-2.67 1.514-5.261 3.165-7.884 4.761l-1.346.819a29.82 29.82 0 0 0-2.961-1.349c-4.212-1.663-8.822-2.283-13.264-2.225-4.421.004-8.927.362-13.33 1.674-1.208.347-2.402.8-3.566 1.334a104.288 104.288 0 0 0-3.093-2.308c-1.146-.819-2.267-1.676-3.431-2.466-2.327-1.583-4.625-3.212-7.009-4.712l-.595-.374-.634.034a3.607 3.607 0 0 0-1.748.566c-.545.353-.943.84-1.177 1.268-.479.876-.593 1.613-.678 2.284-.132 1.333.021 2.485.18 3.61.326 2.242.924 4.329 1.604 6.378.659 2.053 1.478 4.038 2.338 5.995a69.95 69.95 0 0 0 1.506 3.122 79.014 79.014 0 0 0-1.959 4.512c-.817 2.053-1.566 4.109-2.308 6.153l-1.113 3.057c-.357 1.012-.772 1.982-1.125 3.212a15.455 15.455 0 0 0-.519 3.186 77.423 77.423 0 0 0-3.723.221c-2.642.212-5.284.526-7.926 1.131 2.642.604 5.284.919 7.926 1.13 1.258.109 2.519.178 3.778.225.049.478.102.952.194 1.421a17.903 17.903 0 0 0 1.072 3.463c-.149.039-.298.067-.448.109-2.387.642-4.755 1.385-7.074 2.412 2.531.16 5.01.037 7.473-.186.389-.032.773-.093 1.161-.132.185.322.364.648.564.96 1.181 1.816 2.585 3.42 4.106 4.879-2.215 1.182-4.416 2.393-6.55 3.736-2.327 1.443-4.606 2.979-6.754 4.771 2.703-.722 5.272-1.697 7.793-2.763 2.53-1.052 4.983-2.252 7.42-3.485.144-.076.283-.157.426-.232a38.555 38.555 0 0 0 3.527 2.521c7.731 4.703 16.684 7.267 25.709 7.021 8.996-.315 17.767-3.279 25.026-8.426a39.523 39.523 0 0 0 1.941-1.531c.495.229.981.469 1.48.69 2.165.95 4.363 1.822 6.621 2.566 2.251.757 4.543 1.42 6.949 1.82-1.92-1.504-3.958-2.746-6.038-3.894-2.068-1.161-4.197-2.191-6.362-3.147zm-62.725-54.76c.024-.011.015.002-.01.026.002-.003.008-.024.01-.026zM21.47 34.19l-1.165-6.182c-.348-2.043-.668-4.091-.823-6.048a13.755 13.755 0 0 1 .043-2.64c1.87 1.264 3.772 2.483 5.663 3.716 1.177.77 2.4 1.474 3.598 2.213.6.37 1.216.717 1.821 1.076-1.777 1.173-3.412 2.574-4.784 4.208-1.583 1.85-2.85 3.869-3.933 5.95-.143-.76-.275-1.533-.42-2.293z"></path><path d="M40.728 48.064a3.25 3.25 0 1 0-6.5-.001 3.25 3.25 0 0 0 6.5.001zM66.016 44.813a3.25 3.25 0 1 0 0 6.5 3.25 3.25 0 0 0 0-6.5z"></path></g><!----></svg>